<?xml version="1.0" encoding="UTF-8"?>
<svg id="Capa_1" data-name="Capa 1" xmlns="http://www.w3.org/2000/svg" viewBox="0 0 350 350">
  <defs>
    <style>
      .cls-1 {
        fill: #fff;
        stroke: #616160;
        stroke-miterlimit: 10;
      }
    </style>
  </defs>
  <path class="cls-1" d="M289.06,308.45c1.33,9.07-2.53,18.12-9.96,23.47-7.45,5.35-17.24,6.12-25.43,2l-67.97-34.2c-6.88-3.46-15-3.5-21.92-.1l-68.26,33.63c-8.22,4.04-18,3.17-25.4-2.23-7.39-5.44-11.15-14.51-9.77-23.56l11.54-75.22c1.16-7.6-1.31-15.34-6.67-20.86l-53.07-54.55c-6.38-6.56-8.59-16.14-5.73-24.85,2.87-8.69,10.35-15.08,19.39-16.57l75.09-12.28c7.6-1.23,14.19-5.97,17.78-12.79l35.48-67.34c4.27-8.09,12.7-13.15,21.87-13.13,9.17.07,17.54,5.21,21.74,13.34l34.88,67.62c3.53,6.86,10.07,11.66,17.67,12.96l74.99,12.94c9.03,1.57,16.45,8.01,19.24,16.74,2.79,8.73.51,18.29-5.95,24.79l-53.53,54.09c-5.43,5.48-7.97,13.19-6.86,20.82l10.85,75.31Z"/>
</svg>